<?xml version="1.0" standalone="no"?>
<!DOCTYPE svg PUBLIC "-//W3C//DTD SVG 1.1//EN" "http://www.w3.org/Graphics/SVG/1.1/DTD/svg11.dtd" >
<svg xmlns="http://www.w3.org/2000/svg">
<metadata>Generated by IcoMoon</metadata>
<defs>
<font id="icons" horiz-adv-x="1024">
<font-face units-per-em="1024" ascent="960" descent="-64" />
<missing-glyph horiz-adv-x="1024" />
<glyph unicode="&#x20;" d="" horiz-adv-x="512" />
<glyph unicode="&#xe000;" d="M458.712 744.456c-8.074 8.074-19.458 11.778-30.762 9.918-11.224-1.88-20.924-9.026-25.974-19.222l-258.702-523.122-48.198-48.182-68.352-45.33c-8.868-5.86-14.608-15.418-15.678-25.97-1.048-10.53 2.692-21.004 10.174-28.526l110.654-110.656c6.69-6.63 15.718-10.332 25.022-10.332 1.188 0 2.376 0.038 3.526 0.136 10.568 1.090 20.070 6.808 25.97 15.64l46.004 69.4 43.75 43.73c1.266-1.88 2.73-3.662 4.376-5.326l113.822-113.822c6.63-6.63 15.418-10.294 24.822-10.294 9.382 0 18.192 3.644 24.762 10.232l16.39 16.39c13.658 13.698 13.62 35.948-0.038 49.566l-97.766 97.77 440.358 217.802c10.216 5.068 17.362 14.708 19.222 25.952 1.858 11.262-1.842 22.704-9.9 30.76l-353.48 353.478zM155.906 7.666l-79.496 79.514 64.81 36.524 51.21-51.226-36.522-64.812zM1010.754 569.348c-18.49 104.538-63.206 192.606-129.676 259.056-66.352 66.432-154.382 111.11-258.938 129.618-12.354 2.176-28.188-7.602-35.432-21.594-7.346-14.014-3.346-27.218 8.926-29.356l-0.116-0.098c98.102-17.3 180.332-59.304 242.568-121.522 62.294-62.316 104.36-144.562 121.582-242.626 2.136-12.254 15.318-16.294 29.554-8.906 3.818 2.078 7.344 4.712 10.312 7.68 8.076 8.058 12.726 18.864 11.222 27.75zM761.198 709.024c-39.196 39.196-87.832 68.946-144.346 86.862-11.442 3.602-27.634-4.65-36.106-18.43-8.568-13.64-6.294-27.792 5.148-31.416 51.646-16.45 96.402-43.766 132.508-79.832 36.224-36.284 63.582-81.514 80.368-133.654 3.644-11.362 17.816-13.658 31.572-5.028 2.832 1.782 5.446 3.86 7.74 6.154 8.908 8.946 13.542 21.022 10.65 30.128-18.39 56.514-48.1 105.744-87.534 145.216z" />
<glyph unicode="&#xe001;" d="M922.47 580.606l-269.060 65.976c-6.614 1.622-13.226 1.802-19.582 0.972v215.040c14.472 11.704 22.63 30.394 19.582 50.078-4.59 29.424-32.216 49.582-61.582 45.008l-511.998-79.68c-29.446-4.594-49.56-32.158-45.008-61.562 2.178-13.86 9.464-25.544 19.602-33.662v-804.918c0-18.574 15.050-33.682 33.682-33.682l815.474-0.002c18.592 0 33.682 15.11 33.682 33.682v504.256c11.9 7.128 21.168 18.73 24.73 33.286 7.090 28.95-10.61 58.118-39.522 65.206zM121.806 775.39l444.638 69.186v-833.014h-169.974v168.726h-104.67v-168.726h-169.996v763.832zM869.856 11.558h-86.986v86.256h-62.054v-86.256h-86.986l0.002 521.92 236.030-53.108-0.002-468.81zM291.798 747.966h104.67v-102.038h-104.67zM291.798 563.498h104.67v-102.094h-104.67zM291.798 378.99h104.67v-102.034h-104.67zM720.814 442.216h62.058v-60.472h-62.058zM720.814 332.894h62.058v-60.476h-62.058zM720.814 223.57h62.058v-60.452h-62.058z" />
<glyph unicode="&#xe002;" d="M64 256h128v-320h-128zM320 384h128v-448h-128zM576 448h128v-512h-128zM832 640h128v-704h-128zM768 960l64-64-256-256-128 128-384-384 64-64 320 320 128-128 320 320 64-64v192z" />
<glyph unicode="&#xe003;" d="M511.942 954.658c-279.9 0-506.796-226.898-506.796-506.766 0-279.928 226.896-506.768 506.798-506.768 279.778 0 506.736 226.836 506.736 506.768-0.002 279.866-226.96 506.766-506.738 506.766zM426.024 176.49l-228.468 228.472 102.618 102.618 129.724-129.724 307.852 307.854 89.068-108.428-400.79-400.79z" />
<glyph unicode="&#xe004;" d="M1024 352c0 63.968-52.566 119.162-128.52 144.766-7.636-116.362-102.286-216.456-238.52-267.87 25.304-15.018 55.302-26.144 88.206-32.058 23.77-55.538 61.362-108.874 107.466-143.86-24.934 48.946-26.39 97.888-17.648 140.966 107.092 12 189.016 78.19 189.016 158.056zM832 512c0 141.384-171.922 256-384 256-212.074 0-384-114.616-384-256 0-105.274 95.328-195.688 231.562-235.018 21.322-52.73 33.334-122.328-2.122-191.934 53.89 40.896 96.162 106.848 118.294 172.096 11.942-0.746 24.036-1.144 36.27-1.144 212.078 0 384 114.616 384 256z" />
<glyph unicode="&#xe005;" d="M1021.030 812.342l-104.956 109.502c-5.89 6.092-16.64 6.308-22.692 0.298l-492.406-487.98-125.438-241.616c-3.242-6.15-1.988-13.872 3.046-18.712 2.964-2.926 6.888-4.52 11.068-4.52 2.748 0 5.334 0.678 7.8 2.032l235.622 131.586 2.87 2.168 484.806 484.904c6.214 6.1 6.352 15.954 0.284 22.332zM904.312 888.058l47.034-48.406-442.726-437.036-46.914 46.944 442.608 438.498zM514.87 329.232l-105.034-58.638c-24.144 8.202-33.458 27.706-36.942 40.962l52.966 102.546 25.798 25.518 86.782-86.822-23.566-23.566zM548.424 362.788l-30.094 30.174 442.428 436.826 26.434-28.264-438.768-438.738zM158.304 195.434c-4.578 0-8.24-3.702-8.24-8.26s3.662-8.278 8.24-8.278h82.662c4.56 0 8.26 3.722 8.26 8.278 0 4.56-3.7 8.26-8.26 8.26h-82.662zM290.468 314.102c0 4.538-3.682 8.28-8.24 8.28h-123.926c-4.578 0-8.24-3.742-8.24-8.28 0-4.576 3.662-8.26 8.24-8.26h123.922c4.56 0 8.242 3.684 8.242 8.26zM352.35 441.034c0 4.56-3.702 8.25-8.262 8.25l-185.784-0.002c-4.578 0-8.24-3.69-8.24-8.252 0-4.578 3.662-8.264 8.24-8.264h185.784c4.558 0.002 8.262 3.688 8.262 8.264zM547.49 68.226c0-14.67-11.922-26.61-26.572-26.61h-436.358c-14.688 0-26.632 11.942-26.632 26.61v614.622c0 14.638 11.942 26.582 26.632 26.582h290.898v-172.222c0-6.478 5.254-11.714 11.724-11.714h23.964l23.426 23.438h-35.668v136.074l82.404-89.192 35.13 35-111.046 120.228c-4.678 5.066-11.266 7.97-18.21 7.97l-302.624 0.002c-42.036 0-76.212-34.186-76.212-76.172v-614.622c0-42.016 34.176-76.192 76.212-76.192h436.358c42.016 0 76.172 34.176 76.172 76.192v236.164l-49.602-49.602v-186.562z" />
<glyph unicode="&#xe006;" d="M874.668 51.744l-245.024 326.394h-17.706l-17.798-17.774-26.144 36.11c58.102 58.894 94.046 139.67 94.046 228.794 0 179.81-146.288 326.142-326.154 326.142-179.844 0.002-326.144-146.332-326.144-326.142 0-179.854 146.3-326.176 326.142-326.176 53.266 0 103.506 13.126 147.974 35.846l32.64-37.188-19.626-19.692v-9.336c0 0 241.28-302.972 256.258-317.928 14.932-14.988 48.586-9.35 48.586-9.35s48.674 28.082 72.946 52.362c24.316 24.32 0 57.942 0 57.942zM124.944 625.27c0 116.27 94.63 210.93 210.942 210.93 116.334 0 210.942-94.664 210.942-210.93 0-116.358-94.608-210.974-210.942-210.974-116.312-0.002-210.942 94.618-210.942 210.974z" />
<glyph unicode="&#xe007;" d="M234.986 401.918h78.526v-78.278h-78.526zM742.648 509.274l-329.598 279.052c-15.096 12.768-37.19 12.768-52.288 0l-329.58-279.052c-17.042-14.406-19.166-39.944-4.728-56.988 14.422-17.046 39.946-19.182 57.002-4.728l5.272 4.468v-321.382c0-13.954 11.306-25.256 25.272-25.256h545.816c13.97 0 25.288 11.302 25.288 25.256v321.378l5.288-4.468c7.584-6.428 16.884-9.592 26.092-9.592 11.496 0 22.884 4.862 30.896 14.32 14.438 17.048 12.298 42.584-4.73 56.99zM634.542 155.928h-95.702l0.002 245.99h-139.128v-245.99h-260.44v338.878l247.644 209.646 247.628-209.632v-338.892z" horiz-adv-x="790" />
<glyph unicode="&#xe008;" d="M511.042 956.73c-279.722 0-506.392-226.832-506.392-506.518 0-279.762 226.672-506.354 506.392-506.354 279.642 0 506.516 226.592 506.516 506.354-0.002 279.686-226.874 506.516-506.516 506.516zM788.882 514.746l-150.942-113.236 54.856-179.33c2.124-6.912-0.382-14.486-6.25-18.774-3.006-2.202-6.53-3.304-10.096-3.304-3.366 0-6.752 1-9.654 3.026l-155.71 107.186-155.67-107.186c-5.928-4.128-13.882-3.99-19.752 0.28-5.87 4.286-8.376 11.842-6.25 18.774l54.834 179.33-150.92 113.236c-5.812 4.368-8.234 11.94-6.010 18.87 2.246 6.972 8.616 11.722 15.948 11.88l189.526 3.806 62.188 177.106c2.424 6.832 8.856 11.4 16.108 11.4s13.744-4.568 16.146-11.4l62.188-177.106 189.528-3.806c7.292-0.16 13.684-4.91 15.928-11.88 2.226-6.932-0.182-14.504-5.99-18.874z" />
<glyph unicode="&#xe009;" d="M683.158 12.192c0-4.702-3.774-8.472-8.456-8.472h-605.144c-4.68 0-8.454 3.774-8.454 8.472v589.090c0 4.66 3.774 8.494 8.454 8.494h469.768c12.308 19.418 24.862 38.592 37.646 57.558h-507.414c-36.406 0-66.056-29.626-66.056-66.056v-589.090c0-36.428 29.646-66.072 66.056-66.072h605.148c36.408 0 66.054 29.646 66.054 66.072l-0.002 532.48c-19.996-30.262-39.212-60.96-57.6-92.072v-440.408zM1004.72 951.684c-13.4 0-38.202-2.39-74.342-7.13-36.182-4.782-59.514-9.338-70.072-13.73-10.554-4.37-29.666-19.38-57.27-45.064-27.584-25.69-67.64-73.184-120.024-142.392-52.384-69.27-101.366-142.41-146.846-219.45-45.498-77.102-87.928-157.048-127.322-240.006-36.45 58.342-69.392 97.966-98.974 118.87-29.522 20.822-54.426 31.274-74.646 31.274-15.832 0-35.644-7.854-59.538-23.606-23.874-15.728-35.77-31.192-35.77-46.364 0-10.986 10.906-27.294 32.842-48.918 43.414-42.86 81.784-88.376 115.034-136.516 20.286-28.822 33.77-46.466 40.472-52.942 6.678-6.41 27.11-9.648 61.21-9.648 47.436 0 75.64 5.706 84.568 17.13 8.888 10.986 25.336 43.914 49.272 98.668 59.25 137.256 132.87 268.25 220.938 392.974 88.048 124.682 168.8 219.040 242.232 282.928 14.576 12.142 23.4 20.058 26.452 23.67 3.048 3.588 4.596 7.296 4.596 11.13-0.004 6.058-4.294 9.13-12.808 9.13z" />
<glyph unicode="&#xe00a;" d="M663.292 74.952c0-4.568-3.668-8.258-8.216-8.258l-588.336 0.002c-4.552 0-8.216 3.688-8.216 8.258v572.704c0 4.534 3.668 8.258 8.216 8.258h247.488c-12.866 8.298-25.694 16.794-38.664 24.694-20.884 12.866-36.52 22.93-48.986 31.27h-159.842c-35.394 0-64.216-28.778-64.216-64.216v-572.704c0-35.436 28.824-64.258 64.216-64.258h588.336c35.398 0 64.216 28.822 64.216 64.258l0.002 236.778c-17.356 19.202-35.976 38.924-55.998 59.208l-0.002-295.996zM1011.798 799.504c-11.606 4.53-33.812 10.904-66.542 19.082-32.83 8.134-54.456 12.104-65.062 11.904-10.582-0.202-32.168-6.654-64.662-19.4-32.49-12.788-83.096-40.166-151.744-82.054-33.39-20.404-66.382-41.89-99.032-64.418-0.482 0.4-0.962 0.842-1.502 1.242-64.8 51.752-132.644 101.018-203.574 147.958 0 0-147.032 70.79-151.444 39.524-6.17-43.534-4.59-70.15 4.73-79.81 8.938-9.578 36.96-28.904 84.122-57.962 59.95-36.598 117.952-76.486 174.052-119.496-2.766-2.168-5.592-4.21-8.358-6.334-65.418-51.070-129.076-105.586-191.168-163.71 0 0-103.020-126.552-73.656-138.096 40.866-16.072 67.144-20.76 78.748-13.908 11.344 6.456 36.718 29.222 75.902 68.306 64.598 65.016 134.086 125.028 207.706 180.946 23.13-19.88 46.098-40.168 68.526-61.29 102.958-96.926 179-183.23 228.106-258.872 9.222-14.912 15.352-24.052 18.278-27.336 2.89-3.246 6.094-5.174 9.62-5.654 5.552-0.76 8.938 2.764 10.002 10.542 1.744 12.306 2.786 35.356 3.106 69.11 0.322 33.79-0.842 55.798-3.486 66.062-2.648 10.264-13.95 29.742-33.91 58.36-20.024 28.62-58.386 71.554-115.048 128.556-29.684 29.866-60.568 58.844-92.438 87.224 7.856 5.29 15.352 10.944 23.27 16.154 118.234 77.606 219.808 131.52 304.77 161.706 16.698 5.53 26.956 9.338 30.848 11.384 3.806 2.084 6.414 4.77 7.696 8.054 2.082 5.254-0.602 9.342-7.858 12.23z" />
<glyph unicode="&#xe00b;" d="M184.674 566.952c-0.080 0.836 0.24 1.558 0.24 2.374l-120.794 0.022c-3.418 0-6.752 0.558-9.97 1.356-0.906 0.24-1.796 0.538-2.682 0.798-2.47 0.836-4.838 1.874-7.11 3.112-0.71 0.378-1.396 0.678-2.034 1.078-2.504 1.596-4.876 3.35-6.982 5.424-0.18 0.182-0.24 0.36-0.398 0.558-2.782 2.832-5.238 6.040-7.070 9.654-6.97 13.48-5.702 29.716 3.304 41.962l272.158 307.054c7.656 10.422 19.904 16.634 32.95 16.634 13.034-0.042 25.248-6.214 32.906-16.634l272.136-307.092c5.504-7.462 7.736-16.452 7.38-25.37v-0.042c-0.16-2.692-0.38-5.326-1.058-7.938-0.62-2.952-1.596-5.822-2.972-8.576-6.96-13.522-20.982-21.998-36.258-21.998l-125.090 0.020c16.522-248.724 123.954-429.078 255.824-429.078 78.062 0 152.592 62.442 204.528 171.338 5.344 11.192 18.608 16.256 30.116 11.528 9.018-3.688 14.48-12.304 14.48-21.418 0-2.616-0.442-5.246-1.378-7.838-80.154-221.58-218.65-353.868-370.424-353.868-213.152 0-394.742 263.678-431.8 626.944z" />
<glyph unicode="&#xe00c;" d="M1002.638 166.746l-397.996 701.184c-19.398 34.182-55.62 55.256-94.892 55.256-39.312 0-75.536-21.076-94.93-55.26l-397.976-701.182c-19.172-33.762-18.934-75.216 0.6-108.794 19.534-33.542 55.48-54.216 94.312-54.216h795.952c38.85 0 74.754 20.678 94.308 54.216 19.558 33.578 19.776 75.034 0.622 108.794zM564.11 132.568c-13.346-11.86-29.174-17.874-47.024-17.874-18.072 0-34.062 5.932-47.566 17.632-13.786 11.98-20.798 28.77-20.798 49.888 0 18.552 6.612 34.544 19.634 47.544 13.002 13.004 29.13 19.616 47.924 19.616 18.754 0 35.004-6.572 48.288-19.558 13.322-13.024 20.076-29.052 20.076-47.606 0-20.832-6.912-37.502-20.534-49.644zM581.78 584.058l-17.33-198.558c-1.942-24.722-6.13-43.358-12.784-56.924-7.332-14.966-20.114-22.904-36.986-22.904-17.212 0-29.894 7.774-36.686 22.462-6.030 13.082-10.178 32.078-12.704 58.106l-12.924 193.248c-2.442 38.19-3.646 64.836-3.646 81.466 0 24.044 6.552 43.238 19.454 57.022 13.024 13.906 30.314 20.996 51.332 20.996 25.928 0 43.658-9.416 52.736-27.97 8.334-17.11 12.402-40.752 12.402-72.252-0.002-17.826-0.962-36.218-2.866-54.694z" />
<glyph unicode="&#xe00d;" d="M510.894 955.482c-280.23 0-507.4-227.17-507.4-507.366 0-280.262 227.168-507.4 507.4-507.4 280.202 0 507.402 227.136 507.402 507.4 0 280.198-227.198 507.366-507.402 507.366zM610.898 229.23c-50.472-47.502-86.534-77.192-110.35-90.758-25.128-14.376-45.69-21.376-62.784-21.376-16.814 0-30.564 5.626-40.846 16.624-10.002 10.75-15.032 25.188-15.032 43.066 0 46.692 26.564 155.572 81.254 332.736 1.344 4.438 2.25 8.562 2.72 12.218-2.782-0.872-6.312-2.5-10.656-5.218-4.688-2.938-18.438-13.656-58.502-52.816-5.408-5.28-13.782-5.784-19.752-1.156l-23.628 18.25c-3.31 2.562-5.406 6.406-5.784 10.594-0.376 4.154 1.032 8.312 3.846 11.438 36.658 40.408 70.878 69.724 101.694 87.1 52.63 29.626 95.88 34.718 118.634 15.998 9.592-7.906 14.626-19 14.626-32.096 0-5.312 0-17.784-35.44-136.476-46.474-155.884-56.19-208.76-56.19-225.636 0 0 0.126-0.624 0.282-1.25 7.282 3.754 27.034 16.63 74.288 61.13 5.874 5.562 15.030 5.376 20.812-0.188l20.938-20.438c3-2.874 4.626-6.812 4.626-10.876-0.068-4.12-1.754-8.054-4.756-10.87zM611.462 674.69c-13.81-15.218-29.938-22.94-47.942-22.94-14.752 0-27.812 5.53-37.78 15.968-9.88 10.408-14.878 23.844-14.878 39.908 0 20.002 6.594 37.254 19.598 51.346 24.062 26.188 63.816 29.128 86.316 6.218 10.002-10.22 15-23.254 15-38.752-0.002-19.528-6.878-36.966-20.312-51.748z" />
<glyph unicode="&#xe00e;" d="M874.038 810.038c96.704-96.704 149.962-225.28 149.962-362.040s-53.256-265.334-149.962-362.038c-96.704-96.704-225.28-149.962-362.038-149.962-136.76 0-265.334 53.256-362.038 149.962-96.704 96.704-149.962 225.278-149.962 362.038 0 136.76 53.256 265.336 149.962 362.040 96.704 96.704 225.28 149.962 362.038 149.962 136.76 0 265.336-53.256 362.038-149.962zM828.784 131.214c63.058 63.062 104.986 141.61 122.272 227.062-13.474-19.838-26.36-27.196-34.342 17.206-8.222 72.39-74.708 26.15-116.516 51.86-44.004-29.658-142.908 57.662-126.098-40.822 25.934-44.424 140.008 59.448 83.148-34.542-36.274-65.616-132.642-210.932-120.106-286.258 1.582-109.744-112.134-22.884-151.314 13.52-26.356 72.918-8.984 200.374-77.896 236.086-74.802 3.248-139.006 10.046-167.996 93.672-17.448 59.83 18.564 148.894 82.68 162.644 93.848 58.966 127.374-69.054 215.39-71.436 27.328 28.594 101.814 37.686 107.99 69.752-57.75 10.19 73.27 48.558-5.528 70.382-43.47-5.114-71.48-45.074-48.368-78.958-84.238-19.642-86.938 121.904-167.912 77.258-2.058-70.59-132.222-22.884-45.036-8.572 29.956 13.088-48.858 51.016-6.278 44.124 20.914 1.136 91.33 25.812 72.274 42.402 39.212 24.34 72.16-58.29 110.538 1.882 27.706 46.264-11.62 54.808-46.352 31.356-19.58 21.926 34.572 69.274 82.334 89.736 15.918 6.822 31.122 10.538 42.746 9.484 24.058-27.792 68.552-32.606 70.878 3.342-59.582 28.534-125.274 43.61-193.29 43.61-97.622 0-190.472-31.024-267.308-88.392 20.65-9.458 32.372-21.236 12.478-36.294-15.456-46.056-78.168-107.876-133.224-99.126-28.586-49.296-47.41-103.606-55.458-160.528 46.112-15.254 56.742-45.45 46.834-55.55-23.496-20.488-37.936-49.53-45.376-81.32 15.010-91.838 58.174-176.478 125.27-243.576 84.618-84.616 197.118-131.214 316.784-131.214 119.664 0 232.168 46.6 316.784 131.214z" />
<glyph unicode="&#xe00f;" d="M655.114 654.076c68.094 37.87 114.010 87.904 121.86 138.312 5.758 36.952-10.408 69.914-44.342 90.43-86.938 52.572-159.384-38.216-204.898-106.906-37.146 101.214-80.812 158.702-132.712 175.106-24.984 7.896-64.494 9.616-110.822-27.052-44.868-35.514-50.598-73.894-47.498-99.838 8.050-67.45 86.172-129.462 151.218-170.050h-304.65v-247.744h50.138v-465.998h766.826v465.998h44.24v247.742h-289.358zM543.496 691.674c5.096 7.572 10.678 16.326 16.692 25.774 39.494 62.022 80.936 121.13 120.498 121.13 7.212 0 14.366-1.966 21.432-6.238 17.322-10.476 17.958-22.002 16.578-30.874-5.832-37.424-69.384-102.848-192.75-135.866l17.55 26.072zM295.27 831.118c-1.238 10.348 0.066 26.438 25.536 46.594 31.512 24.938 50.276 19.014 56.44 17.062 22.882-7.232 68.058-42.188 113.514-195.034l13.584-45.664h-7.5l2.826 6.14c-75.286 34.696-197.354 111.78-204.406 170.9zM142.254 595.088h309.68v-129.956l-309.68 0.186v129.77zM192.394 406.146h259.54v-406.822h-259.54v406.822zM575.806-0.678v406.822h265.44v-406.822h-265.44zM885.486 465.32h-44.24v-0.186h-265.44v129.954h309.68v-129.768z" />
<glyph unicode="&#xe010;" d="M665.244 845.062h-236.158c-187.11 0-339.33-152.22-339.33-339.33 0-153.822 102.918-287.876 250.894-327.694l36.002-230.502 230.652 218.87h57.968c187.11 0 339.33 152.218 339.33 339.33-0.028 187.106-152.232 339.328-339.358 339.328zM417.554 67.666l-24.888 159.284-20.050 4.066c-129.736 26.552-223.9 142.098-223.9 274.714 0 154.594 125.76 280.368 280.368 280.368h236.144c154.582 0 280.368-125.76 280.368-280.368s-125.802-280.354-280.398-280.354h-81.52l-166.126-157.71z" horiz-adv-x="1052" />
<glyph unicode="&#xe011;" d="M77.28 627.136h870.4c29.214 0 24.416 31.128 9.88 36.202-14.542 5.082-176.278 66.2-204.438 66.2h-46.080v153.6h-389.12v-153.6h-46.080c-28.16 0-189.904-61.12-204.438-66.2-14.546-5.072-19.344-36.202 9.88-36.202zM957.922 570.816h-890.88c-28.16 0-56.32-33.28-56.32-61.44v-179.2c0-28.16 28.16-61.44 56.32-61.44h101.498l-45.174-256h778.24l-45.184 256h101.504c28.16 0 56.32 33.28 56.32 61.44v179.2c-0.002 28.16-28.162 61.44-56.322 61.44zM225.76 115.136l71.68 332.8h430.080l71.68-332.8h-573.44z" />
<glyph unicode="&#xe012;" d="M512 960c-282.752 0-512-229.248-512-512s229.248-512 512-512 512 229.248 512 512-229.248 512-512 512zM768 384h-192v-192h-128v192h-192v128h192v192h128v-192h192v-128z" />
<glyph unicode="&#xe014;" d="M627.838 298.896c148.182 0 268.738 146.208 268.738 325.906 0 179.702-120.582 325.932-268.738 325.932-148.206 0-268.738-146.232-268.738-325.932 0-179.7 120.534-325.906 268.738-325.906zM627.838 882.75c110.718 0 200.778-115.736 200.778-257.972 0-142.21-90.086-257.948-200.778-257.948-110.718 0-200.778 115.712-200.778 257.948 0 142.236 90.062 257.974 200.778 257.974zM1103.248 77.088c-64.664 96.306-214.24 166.712-390.368 183.746l-22.154 2.098-10.788-19.48c-8.342-14.986-30.346-25.426-53.496-25.426-23.126 0-45.082 10.414-53.35 25.274l-10.84 19.48-22.23-2.222c-174.778-17.432-323.286-87.74-387.548-183.47l-6.27-9.366 0.522-11.288c1.948-38.486 31.12-68.608 66.46-68.608l829.414-0.002c35.266 0 64.386 30.172 66.362 68.682l0.598 11.24-6.318 9.342zM1034.24 55.832h-812.904c56.87 68.034 169.96 118.010 306.4 134.994 23.476-25.626 59.914-40.786 98.654-40.786 38.836 0 75.426 15.234 98.878 41.034 137.616-16.56 251.706-66.686 308.974-135.244z" horiz-adv-x="1198" />
<glyph unicode="&#xe015;" d="M256 576l256-256 256 256z" />
<glyph unicode="&#xe016;" d="M768 320l-256 256-256-256z" />
<glyph unicode="&#xe017;" d="M1024 765.582c-37.674-16.708-78.164-28.002-120.662-33.082 43.37 26 76.686 67.17 92.374 116.23-40.596-24.078-85.558-41.562-133.41-50.98-38.32 40.83-92.922 66.342-153.346 66.342-116.024 0-210.086-94.058-210.086-210.078 0-16.466 1.858-32.5 5.44-47.878-174.6 8.762-329.402 92.4-433.016 219.506-18.086-31.028-28.446-67.116-28.446-105.618 0-72.888 37.088-137.192 93.46-174.866-34.438 1.094-66.832 10.542-95.154 26.278-0.022-0.876-0.022-1.754-0.022-2.642 0-101.786 72.418-186.696 168.522-206-17.626-4.8-36.188-7.37-55.348-7.37-13.538 0-26.698 1.322-39.528 3.77 26.736-83.462 104.32-144.206 196.25-145.894-71.9-56.35-162.486-89.934-260.916-89.934-16.958 0-33.68 0.994-50.116 2.938 92.972-59.61 203.402-94.394 322.040-94.394 386.424 0 597.736 320.124 597.736 597.744 0 9.11-0.206 18.168-0.61 27.178 41.056 29.62 76.672 66.62 104.836 108.748z" />
<glyph unicode="&#xe018;" d="M622.826 257.264c-22.11 3.518-22.616 64.312-22.616 64.312s64.97 64.316 79.126 150.802c38.088 0 61.618 91.946 23.522 124.298 1.592 34.052 48.962 267.322-190.86 267.322-239.822 0-192.45-233.27-190.864-267.322-38.094-32.35-14.57-124.298 23.522-124.298 14.158-86.486 79.128-150.802 79.128-150.802s-0.504-60.794-22.616-64.312c-71.218-11.332-337.17-128.634-337.17-257.264h896c0 128.63-265.952 245.932-337.174 257.264z" />
<glyph unicode="&#xe01a;" d="M928 640h-224v128c0 35.2-28.8 64-64 64h-256c-35.204 0-64-28.8-64-64v-128h-224c-52.8 0-96-43.2-96-96v-448c0-52.8 43.2-96 96-96h832c52.794 0 96 43.2 96 96v448c0 52.8-43.198 96-96 96zM384 767.886c0.032 0.042 0.072 0.082 0.118 0.114h255.774c0.042-0.038 0.080-0.076 0.116-0.114v-127.886h-256.008v127.886z" />
<glyph unicode="&#xe01b;" d="M512 960c-163.338 0-295.742-132.404-295.742-295.74 0-4.026 0.122-8.202 0.32-12.448 0.1-2.47 0.252-4.908 0.418-7.366 0.104-1.56 0.226-3.148 0.36-4.744 0.208-2.608 0.42-5.222 0.7-7.812 24.526-238.908 293.944-695.894 293.944-695.894s269.41 456.982 293.942 695.894c0.286 2.59 0.49 5.206 0.702 7.81 0.13 1.594 0.264 3.184 0.366 4.744 0.168 2.456 0.316 4.894 0.422 7.368 0.194 4.25 0.312 8.424 0.312 12.448-0.010 163.336-132.41 295.738-295.744 295.738zM640 640c0-70.694-57.308-128-128-128s-128 57.306-128 128 57.308 128 128 128c70.692 0 128-57.306 128-128z" />
<glyph unicode="&#xe01c;" d="M384.002 192l256 256-256 256z" />
<glyph unicode="&#xe01d;" d="M640.002 704l-256-256 256-256.002z" />
<glyph unicode="&#xe01e;" d="M512.48 806.336c-197.936 0-358.4-160.472-358.4-358.4 0-197.946 160.464-358.4 358.4-358.4 197.928 0 358.4 160.456 358.4 358.4 0.002 197.928-160.472 358.4-358.4 358.4z" />
<glyph unicode="&#xe01f;" d="M264.456 785.856c-82.448 0-149.288-68.768-149.288-153.6s66.838-153.6 149.288-153.6c149.28 0 49.76-296.96-149.288-296.96v-71.68c355.23 0 494.446 675.84 149.288 675.84zM694.538 785.856c-82.448 0-149.288-68.768-149.288-153.6s66.838-153.6 149.288-153.6c149.28 0 49.76-296.96-149.288-296.96v-71.68c355.23 0 494.446 675.84 149.288 675.84z" />
<glyph unicode="&#xe020;" d="M1024 448l-512 512v-320h-511.998l-0.002-384h512v-320z" />
<glyph unicode="&#xe021;" d="M320 576h128v-128h-128zM512 576h128v-128h-128zM704 576h128v-128h-128zM128 192h128v-128h-128zM320 192h128v-128h-128zM512 192h128v-128h-128zM320 384h128v-128h-128zM512 384h128v-128h-128zM704 384h128v-128h-128zM128 384h128v-128h-128zM832 960v-64h-128v64h-448v-64h-128v64h-128v-1024h960v1024h-128zM896 0h-832v704h832v-704z" />
<glyph unicode="&#xe022;" d="M358.666-0.384c-4.85 0-9.736 0.928-14.416 2.782-14.662 5.908-24.246 20.102-24.246 35.914v160.564c-157.466 24.798-275.952 169.928-275.952 346.466 0 193.16 145.222 350.312 323.698 350.312h288.476c178.494 0 323.698-157.148 323.698-350.312 0-193.166-145.206-350.33-323.698-350.33l-93.914 0.004-175.724-183.476c-7.43-7.762-17.574-11.924-27.922-11.924zM367.75 818.298c-135.842 0-246.342-122.448-246.342-272.952 0-148.352 104.798-268.142 238.574-272.748 20.844-0.706 37.36-17.798 37.36-38.644v-99.352l120.532 125.846c7.302 7.618 17.37 11.928 27.922 11.928h110.432c135.84 0 246.342 122.466 246.342 272.972 0 150.508-110.5 272.952-246.342 272.952h-288.48zM731.314 689.13c0-15.962-18.232-28.9-40.708-28.9h-348.298c-22.488 0-40.712 12.938-40.712 28.9v0c0 15.962 18.224 28.9 40.712 28.9h348.298c22.476-0.002 40.71-12.938 40.71-28.9v0zM817.26 555.47c0-15.962-18.236-28.902-40.712-28.902l-529.234 0.002c-22.486 0-40.712 12.938-40.712 28.9v0c0 15.964 18.226 28.902 40.712 28.902l529.234-0.002c22.472-0.002 40.712-12.94 40.712-28.902v0zM772.028 410.368c0-15.624-15.658-28.294-34.986-28.294h-454.752c-19.312 0-34.976 12.674-34.976 28.294v0c0 15.624 15.664 28.298 34.976 28.298h454.748c19.332 0 34.99-12.672 34.99-28.298v0z" />
<glyph unicode="&#xe023;" d="M964.664 211.004c7.73-13.63 3.14-31.038-10.26-38.904-13.406-7.866-30.562-3.202-38.29 10.428l-159.062 279.774-220.186-170.602c-5.754-6.978-14.072-10.174-22.524-9.956-8.344-0.22-16.49 2.952-22.248 9.702l-223.41 171.912-159.676-280.834c-7.734-13.63-24.888-18.298-38.294-10.424-13.402 7.866-17.99 25.274-10.258 38.904l163.176 287.008-223.634 172.082v-494.43c0-42.712 21.358-64.072 64.070-64.072h896.978c42.712 0 64.070 21.358 64.070 64.072v494.29l-223.104-172.826 162.646-286.118zM514.286 346.26l500.74 387.924c2.778 2.086 5.87 3.392 9.008 4.338-2.698 37.126-23.166 56.478-62.986 56.478h-896.978c-39.822 0-60.288-19.352-62.984-56.478 3.142-0.944 6.23-2.252 9.012-4.338l504.188-387.924zM536.862 291.702l-6.058-4.698c-4.952-3.726-10.708-5.116-16.462-5.254 8.452-0.222 16.768 2.974 22.52 9.954z" horiz-adv-x="1026" />
<glyph unicode="&#xe024;" d="M0.268 619.854h1022l-191.706-567.75h-638.582l-191.71 567.75zM113.824 676.63l-49.57 170.306h447.014v-56.752h454.222l-56.778-113.554h-794.886z" horiz-adv-x="1022" />
<glyph unicode="&#xe027;" d="M480 960v0c265.096 0 480-173.914 480-388.448s-214.904-388.448-480-388.448c-25.458 0-50.446 1.62-74.834 4.712-103.106-102.694-222.17-121.11-341.166-123.816v25.134c64.252 31.356 116 88.466 116 153.736 0 9.106-0.712 18.048-2.030 26.794-108.558 71.214-177.97 179.99-177.97 301.89 0 214.534 214.902 388.448 480 388.448zM996 89.314c0-55.942 36.314-104.898 92-131.77v-21.544c-103.126 2.318-197.784 18.102-287.144 106.126-21.138-2.65-42.794-4.038-64.856-4.038-95.47 0-183.408 25.758-253.614 69.040 144.674 0.504 281.26 46.852 384.834 130.672 52.208 42.25 93.394 91.826 122.414 147.346 30.766 58.866 46.366 121.584 46.366 186.408 0 10.448-0.45 20.836-1.258 31.168 72.568-59.934 117.258-141.622 117.258-231.674 0-104.49-60.158-197.722-154.24-258.762-1.144-7.496-1.76-15.16-1.76-22.966z" horiz-adv-x="1152" />
<glyph unicode="&#xe03e;" d="M438.93 728.704c21.392-20.87 230.512-240.432 230.512-240.432 11.41-11.136 17.122-25.728 17.122-40.336 0-14.616-5.712-29.214-17.122-40.342 0 0-209.12-219.558-230.512-240.432s-59.88-22.288-82.728 0c-22.824 22.264-24.64 53.352 0.016 80.672l191.84 200.104-191.84 200.088c-24.656 27.328-22.838 58.41-0.016 80.682 22.846 22.286 61.334 20.862 82.728-0.002z" />
<glyph unicode="&#xe20e;" d="M896 768h-768v-640h768v640zM1024 896v0-896h-1024v896h1024zM832 192h-640v128l192 320 263-320 185 128v-64zM640 608c0-53.020 42.98-96 96-96s96 42.98 96 96c0 53.020-42.98 96-96 96-53.020 0-96-42.98-96-96z" />
<glyph unicode="&#xe21e;" d="M1028.674-0.554c-0.446 2.448-76.8 225.502-324.342 271.36 37.62 47.64 66.782 120.654 82.366 201.24 88.376 13.58 156.048 89.712 156.048 181.426 0 102.178-82.366 184.542-184.542 184.542-5.566 0-11.352 0-16.918-0.668-48.306 79.248-128 122.656-232.182 122.656-94.608 0-170.294-37.178-218.6-107.742-39.622-57.656-60.55-137.572-60.55-230.4 0-133.788 43.854-282.936 109.526-359.288-211.258-48.308-312.766-249.548-316.994-259.342l-22.484-44.744h1042.478l-13.804 40.96zM789.592 759.432v-84.368h85.48v-58.768h-85.48v-84.146h-56.768v84.146h-85.48l0.002 58.766h85.484l-0.002 68.12v16.252h56.766zM105.294 20.592c47.192 68.12 156.048 190.776 326.344 190.776v61.886c-52.536 0-139.8 162.726-139.8 348.606 0 80.582 17.366 148.034 50.086 195.674 36.508 53.206 92.826 80.582 167.178 80.582 83.034 0 136.236-33.392 169.628-78.804-13.578-6.010-26.49-14.248-38.288-23.374-40.294-34.726-66.338-85.48-66.338-142.472 0-72.568 42.74-135.568 104.182-166.066 14.692-6.234 29.606-11.798 45.858-14.914-23.596-113.754-75.020-193.672-111.528-193.672v-61.886c206.806 0 302.748-128.89 339.924-196.342l-847.248 0.002z" horiz-adv-x="1068" />
<glyph unicode="&#xe22e;" d="M967.644 415.586v121.222h-119.666c-4.45 27.226-11.688 53.498-22.14 78.494l101.906 62.994-63.63 103.174-102.538-62.992c-15.818 18.68-33.544 35.134-52.86 50l56.356 105.754-107.308 57.308-56.322-106.072c-18.394 6.32-37.394 11.052-56.99 14.23l-0.002 120.302h-121.258v-120.302c-26.906-4.414-52.858-11.688-77.506-22.14l-63.312 102.542-103.528-63.596 62.994-102.576c-18.396-15.818-35.17-33.544-50.034-53.176l-106.040 56.672-57.272-107.306 106.038-56.358c-6.32-18.36-11.052-37.64-14.23-56.956l-120.302 0.002v-121.222h120.302c4.414-26.904 11.688-52.86 22.14-77.86-51.272-31.64-101.906-62.994-101.906-62.994l63.63-103.212 101.906 62.678c15.818-18.678 33.862-35.452 53.498-50.034l-56.32-106.038 107.272-57.274 56.392 106.002c18.008-6.32 37.040-11.052 56.32-13.914v-120.62h121.258v120.302c26.904 4.414 53.178 11.722 78.212 22.456l63.274-102.86 103.212 63.592-62.994 102.576c18.36 15.502 35.452 33.544 50 53.178 53.528-28.178 106.39-56.638 106.39-56.638l56.956 107.308-105.718 56.356c6.356 18.394 11.052 37.358 14.23 56.99l119.592 0.002zM622.312 403.192c-3.178-6.32-6.956-12.326-11.052-17.688-8.23-11.722-18.078-22.14-29.13-30.402-5.082-4.096-10.134-7.91-15.502-11.052-7.24-4.414-14.548-8.546-22.14-11.406-11.722-5.37-24.082-8.826-36.688-10.734-7.942-1.27-15.82-1.906-24.118-1.906-4.73 0-9.178 0.318-13.594 0.952-16.488 0.952-31.956 5.048-46.856 11.688-3.742 1.59-7.592 3.496-11.37 5.4-6.638 3.496-12.958 7.31-18.644 11.406-11.724 8.23-21.858 17.726-30.402 28.496-4.132 5.082-7.592 10.452-11.050 15.818-4.45 7.274-8.228 14.548-11.724 21.858-5.084 12.006-8.862 24.682-10.452 37.358-1.272 7.592-1.906 15.184-1.906 23.13 0 4.73 0.318 9.818 0.952 14.548 1.272 16.134 5.084 31.638 11.37 46.222 1.588 4.132 3.498 8.228 5.718 12.040 3.462 6.32 7.238 12.642 11.368 18.36 8.546 11.724 18.044 21.822 29.096 30.084 4.766 4.414 9.818 7.912 15.218 11.052 7.274 4.414 14.548 8.228 21.822 11.724 12.074 5.082 24.68 8.862 37.394 10.452 7.592 1.27 15.184 1.906 23.058 1.906 4.766 0 9.534-0.318 14.264-0.952 16.136-1.27 31.92-5.048 46.502-11.722 4.096-1.59 8.23-3.498 12.006-5.686 6.356-3.178 12.394-6.956 18.078-10.77 11.722-8.228 21.858-17.726 30.682-28.496 4.45-5.084 8.23-10.77 12.076-16.808 4.414-6.956 7.91-13.948 11.052-21.224 5.082-11.724 8.51-24.082 10.452-36.722 1.236-7.912 1.872-15.82 1.872-24.046 0-4.766-0.318-9.534-0.918-13.948-1.236-16.17-5.082-31.992-11.688-46.54-1.62-4.136-3.562-8.232-5.75-12.398z" />
<glyph unicode="&#xe23e;" d="M657.768 149.326l374.616 412.1-439.106 398.574-24.6-27.028-7.954-8.596-541.1-595.706 23.958-21.504 184.842-168.294c-137.526-15.952-228.426-43.6-228.426-75.534 0-44.198 176.27-81.062 409.028-88.424 28.862-1.24 58.32-1.832 88.424-1.832 0.62 0 1.238 0 1.834 0 275.146 0 498.712 40.534 498.712 90.278 0.024 39.914-142.48 73.68-340.23 85.968zM560.726 832.238c0-162.104 0-424.984 0-463.658-33.174 0-246.904 0-421.29 0 89.014 97.638 327.916 360.52 421.29 463.658zM134.478 307.164h487.662v543.53c77.99-70.656 290.482-262.882 323.062-292.96-25.196-27.648-230.304-254.262-367.902-405.336-21.336-23.624-40.89-45.178-58.13-64.13-6.62 0.048-13.216 0.096-19.86 0.096-42.248 0-82.848-0.548-121.856-1.428-20.406 18.528-43.15 39.174-66.68 60.538-65.106 58.96-136.356 123.448-176.294 159.692z" horiz-adv-x="1046" />
<glyph unicode="&#xe24e;" d="M687.066 301.378h-392.76l28.442-28.442v392.76l-28.442-28.442h392.76l-28.442 28.442v-392.76l28.442 28.442zM687.066 694.14h-421.204v-449.646h449.646v28.442l0.004 392.758v28.446h-28.446zM443.466 789.902h94.814v-133.12h-94.814zM609.432 755.314l-118.178 204.686-118.176-204.686zM443.466 277.902h94.814v-129.592h-94.814zM372.318 182.898l118.216-204.686 118.178 204.686zM686.84 516.534h124.85v-94.814h-124.85zM777.102 350.568l204.686 118.178-204.686 118.176zM170.098 516.534h129.592v-94.814h-129.592zM204.686 587.682l-204.686-118.216 204.686-118.178z" />
<glyph unicode="&#xe28e;" d="M509 134.576c-38.072 14.972-89.198 25.63-145.33 30.446 82.266 118.702 207.886 330.576 207.886 517.326-0.002 153.362-124.338 277.654-277.656 277.654-153.336 0-277.648-124.29-277.648-277.654 0-186.75 125.62-398.624 207.886-517.326-56.134-4.816-107.258-15.474-145.328-30.446-65.134-25.61-78.808-58.202-78.808-81.034 0-78.612 152.348-114.416 293.896-114.416 74.050 0 144.038 9.558 197.074 26.908 80.030 26.184 96.828 62.038 96.828 87.51 0.002 22.83-13.668 55.422-78.8 81.034zM127.306 682.346c0 92.008 74.586 166.596 166.598 166.596 92.008 0 166.598-74.586 166.598-166.596s-74.59-166.574-166.598-166.574c-92.010 0-166.598 74.568-166.598 166.574zM293.896-6.638c-155.678 0-239.658 42.712-239.658 60.182 0 12.786 58.378 50.172 189.854 58.61 5.77 0.368 11.61 0.65 17.462 0.89 19.778-26.418 32.344-41.514 32.344-41.514s12.568 15.096 32.346 41.514c5.858-0.238 11.694-0.52 17.464-0.89 131.478-8.438 189.856-45.824 189.856-58.61 0.002-17.466-83.982-60.182-239.664-60.182z" horiz-adv-x="590" />
<glyph unicode="&#xe600;" d="M864 832l-480-480-224 224-160-160 384-384 640 640z" />
<glyph unicode="&#xe601;" d="M690.22 488.318c-60.668 28.652-137.972 34.42-194.834-6.048 69.14 6.604 144.958-4.838 195.106-57.124 48 55.080 124.114 65.406 192.958 59.732-57.488 38.144-133.22 33.024-193.23 3.44zM665.648 354.25c-68.378 1.578-134.434-23.172-191.1-60.104-107.176 45.588-242.736 37.124-334.002-38.982 26.33 0.934 52.006 7.446 78.056 10.792 95.182 9.488 196.588-14.142 268.512-79.824 29.772 43.542 71.644 78.242 119.652 99.922 63.074 30.52 134.16 33.684 202.82 34.52-41.688 28.648-94.616 33.954-143.938 33.676zM903.432 760.57l-142.864 142.862c-31.112 31.112-92.568 56.568-136.568 56.568h-480c-44 0-80-36-80-80v-864c0-44 36-80 80-80h736c44 0 80 36 80 80v608c0 44-25.456 105.458-56.568 136.57zM858.178 715.314c3.13-3.13 6.25-6.974 9.28-11.314h-163.458v163.456c4.34-3.030 8.184-6.15 11.314-9.28l142.864-142.862zM896 16c0-8.672-7.328-16-16-16h-736c-8.672 0-16 7.328-16 16v864c0 8.672 7.328 16 16 16h480c4.832 0 10.254-0.61 16-1.704v-254.296h254.296c1.094-5.746 1.704-11.166 1.704-16v-608z" />
<glyph unicode="&#xe602;" d="M639.778 484.108h44.212l-51.012-226.178-66.326 318.010h-106.55l-77.114-318.010-57.816 318.010h-111.394l113.092-511.882h108.838l76.294 302.708 68.256-302.708h100.336l129.63 511.882h-170.446zM903.432 760.57l-142.864 142.862c-31.112 31.112-92.568 56.568-136.568 56.568h-480c-44 0-80-36-80-80v-864c0-44 36-80 80-80h736c44 0 80 36 80 80v608c0 44-25.456 105.458-56.568 136.57zM858.178 715.314c3.13-3.13 6.25-6.974 9.28-11.314h-163.458v163.456c4.34-3.030 8.184-6.15 11.314-9.28l142.864-142.862zM896 16c0-8.672-7.328-16-16-16h-736c-8.672 0-16 7.328-16 16v864c0 8.672 7.328 16 16 16h480c4.832 0 10.254-0.61 16-1.704v-254.296h254.296c1.094-5.746 1.704-11.166 1.704-16v-608z" />
<glyph unicode="&#xe603;" d="M743.028 576h-135.294l-95.732-141.032-95.74 141.032h-135.288l162.162-242.464-182.974-269.536h262.24v91.576h-60.556l50.156 74.994 111.396-166.57h140.442l-182.976 269.536zM903.432 760.57l-142.864 142.862c-31.112 31.112-92.568 56.568-136.568 56.568h-480c-44 0-80-36-80-80v-864c0-44 36-80 80-80h736c44 0 80 36 80 80v608c0 44-25.456 105.458-56.568 136.57zM858.178 715.314c3.13-3.13 6.25-6.974 9.28-11.314h-163.458v163.456c4.34-3.030 8.184-6.15 11.314-9.28l142.864-142.862zM896 16c0-8.672-7.328-16-16-16h-736c-8.672 0-16 7.328-16 16v864c0 8.672 7.328 16 16 16h480c4.832 0 10.254-0.61 16-1.704v-254.296h254.296c1.094-5.746 1.704-11.166 1.704-16v-608z" />
<glyph unicode="&#xe604;" d="M416 832h96v-64h-96zM320 768h96v-64h-96zM416 704h96v-64h-96zM320 640h96v-64h-96zM416 576h96v-64h-96zM320 512h96v-64h-96zM416 448v-64h-96v-224c0-17.674 14.326-32 32-32h128c17.674 0 32 14.326 32 32v288h-96zM480 192h-128v64h128v-64zM903.432 760.57l-142.864 142.862c-31.112 31.112-92.568 56.568-136.568 56.568h-480c-44 0-80-36-80-80v-864c0-44 36-80 80-80h736c44 0 80 36 80 80v608c0 44-25.456 105.458-56.568 136.57zM858.178 715.314c3.13-3.13 6.25-6.974 9.28-11.314h-163.458v163.456c4.34-3.030 8.184-6.15 11.314-9.28l142.864-142.862zM896 16c0-8.672-7.328-16-16-16h-736c-8.672 0-16 7.328-16 16v864c0 8.672 7.328 16 16 16h480c4.832 0 10.254-0.61 16-1.704v-254.296h254.296c1.094-5.746 1.704-11.166 1.704-16v-608z" />
<glyph unicode="&#xe605;" d="M192 448h192v-64h-192v64zM192 320h192v-64h-192v64zM192 192h192v-64h-192v64zM903.432 760.57l-142.864 142.862c-31.112 31.112-92.568 56.568-136.568 56.568h-480c-44 0-80-36-80-80v-864c0-44 36-80 80-80h736c44 0 80 36 80 80v608c0 44-25.456 105.458-56.568 136.57zM858.178 715.314c3.13-3.13 6.25-6.974 9.28-11.314h-163.458v163.456c4.34-3.030 8.184-6.15 11.314-9.28l142.864-142.862zM896 16c0-8.672-7.328-16-16-16h-736c-8.672 0-16 7.328-16 16v864c0 8.672 7.328 16 16 16h480c4.832 0 10.254-0.61 16-1.704v-254.296h254.296c1.094-5.746 1.704-11.166 1.704-16v-608zM576 256h188.792c-14.826-73.032-79.386-128-156.792-128-88.366 0-160 71.634-160 160 0 77.406 54.97 141.966 128 156.792v-188.792zM672 512c88.366 0 160-71.634 160-160 0-10.958-1.108-21.66-3.208-32h-188.792v188.792c10.34 2.1 21.042 3.208 32 3.208z" />
<glyph unicode="&#xe606;" d="M448 384l-64 64-192-192 192-192 64 64-128 128zM576 128l64-64 192 192-192 192-64-64 128-128zM903.432 760.57l-142.864 142.862c-31.112 31.112-92.568 56.568-136.568 56.568h-480c-44 0-80-36-80-80v-864c0-44 36-80 80-80h736c44 0 80 36 80 80v608c0 44-25.456 105.458-56.568 136.57zM858.178 715.314c3.13-3.13 6.25-6.974 9.28-11.314h-163.458v163.456c4.34-3.030 8.184-6.15 11.314-9.28l142.864-142.862zM896 16c0-8.672-7.328-16-16-16h-736c-8.672 0-16 7.328-16 16v864c0 8.672 7.328 16 16 16h480c4.832 0 10.254-0.61 16-1.704v-254.296h254.296c1.094-5.746 1.704-11.166 1.704-16v-608z" />
<glyph unicode="&#xe607;" d="M384 348.554v114.226c0 15.128 6.696 29.436 18.854 40.286 12.16 10.848 28.192 16.826 45.146 16.826v57.11c-70.4 0-128-51.4-128-114.222v-85.666c0-15.772-14.328-28.558-32-28.558h-32v-57.11h32c17.674 0 32-12.79 32-28.558v-85.676c0-62.814 57.6-114.214 128-114.214v57.112c-16.954 0-32.988 5.976-45.146 16.826-12.158 10.852-18.854 25.154-18.854 40.278v114.234c0 15.77-14.328 28.554-32 28.554 17.674-0.002 32 12.788 32 28.552zM640 291.446v-114.234c0-15.124-6.696-29.426-18.854-40.278-12.158-10.85-28.19-16.826-45.146-16.826v-57.112c70.402 0 128 51.4 128 114.214v85.676c0 15.772 14.328 28.558 32 28.558h32v57.11h-32c-17.672 0-32 12.79-32 28.558v85.668c0 62.824-57.598 114.222-128 114.222v-57.11c16.958 0 32.988-5.978 45.146-16.83 12.16-10.848 18.854-25.156 18.854-40.284v-114.228c0-15.766 14.328-28.552 32-28.552-17.672 0.002-32-12.788-32-28.552zM903.432 760.57l-142.864 142.862c-31.112 31.112-92.568 56.568-136.568 56.568h-480c-44 0-80-36-80-80v-864c0-44 36-80 80-80h736c44 0 80 36 80 80v608c0 44-25.456 105.458-56.568 136.57zM858.178 715.314c3.13-3.13 6.25-6.974 9.28-11.314h-163.458v163.456c4.34-3.030 8.184-6.15 11.314-9.28l142.864-142.862zM896 16c0-8.672-7.328-16-16-16h-736c-8.672 0-16 7.328-16 16v864c0 8.672 7.328 16 16 16h480c4.832 0 10.254-0.61 16-1.704v-254.296h254.296c1.094-5.746 1.704-11.166 1.704-16v-608z" />
<glyph unicode="&#xe608;" d="M534.626 937.372c-12.444 12.444-37.026 22.628-54.626 22.628h-384c-17.6 0-32-14.4-32-32v-960c0-17.6 14.4-32 32-32h768c17.6 0 32 14.4 32 32v576c0 17.6-10.182 42.182-22.626 54.626l-338.748 338.746zM832 0h-704v896h351.158c2.916-0.48 8.408-2.754 10.81-4.478l337.556-337.554c1.722-2.402 3.996-7.894 4.476-10.81v-543.158zM864 960h-192c-17.6 0-21.818-10.182-9.374-22.626l210.746-210.746c12.446-12.446 22.628-8.228 22.628 9.372v192c0 17.6-14.4 32-32 32z" />
<glyph unicode="&#xe609;" d="M697.832 632.952l-64.952 64.922-324.81-324.742c-53.814-53.792-53.814-141.048 0-194.844 53.804-53.792 141.060-53.792 194.874 0l389.772 389.708c89.714 89.662 89.714 235.062 0 324.726-89.666 89.704-235.112 89.704-324.782 0l-409.23-409.178c-0.29-0.304-0.612-0.576-0.876-0.846-125.102-125.096-125.102-327.856 0-452.906 125.054-125.056 327.868-125.056 452.988 0 0.274 0.274 0.516 0.568 0.82 0.876l0.032-0.034 279.332 279.292-64.986 64.92-279.33-279.262c-0.296-0.268-0.564-0.57-0.846-0.844-89.074-89.058-233.98-89.058-323.076 0-89.062 89.042-89.062 233.922 0 322.978 0.304 0.304 0.604 0.582 0.888 0.846l-0.046 0.060 409.28 409.166c53.712 53.738 141.144 53.738 194.886 0 53.712-53.734 53.712-141.148 0-194.84l-389.772-389.7c-17.936-17.922-47.054-17.922-64.972 0-17.894 17.886-17.894 47.032 0 64.92l324.806 324.782z" />
<glyph unicode="&#xe60a;" d="M1014.662 137.34c-0.004 0.004-0.008 0.008-0.012 0.010l-310.644 310.65 310.644 310.65c0.004 0.004 0.008 0.006 0.012 0.010 3.344 3.346 5.762 7.254 7.312 11.416 4.246 11.376 1.824 24.682-7.324 33.83l-146.746 146.746c-9.148 9.146-22.45 11.566-33.828 7.32-4.16-1.55-8.070-3.968-11.418-7.31 0-0.004-0.004-0.006-0.008-0.010l-310.648-310.652-310.648 310.65c-0.004 0.004-0.006 0.006-0.010 0.010-3.346 3.342-7.254 5.76-11.414 7.31-11.38 4.248-24.682 1.826-33.83-7.32l-146.748-146.748c-9.148-9.148-11.568-22.452-7.322-33.828 1.552-4.16 3.97-8.072 7.312-11.416 0.004-0.002 0.006-0.006 0.010-0.010l310.65-310.648-310.65-310.652c-0.002-0.004-0.006-0.006-0.008-0.010-3.342-3.346-5.76-7.254-7.314-11.414-4.248-11.376-1.826-24.682 7.322-33.83l146.748-146.746c9.15-9.148 22.452-11.568 33.83-7.322 4.16 1.552 8.070 3.97 11.416 7.312 0.002 0.004 0.006 0.006 0.010 0.010l310.648 310.65 310.648-310.65c0.004-0.002 0.008-0.006 0.012-0.008 3.348-3.344 7.254-5.762 11.414-7.314 11.378-4.246 24.684-1.826 33.828 7.322l146.746 146.748c9.148 9.148 11.57 22.454 7.324 33.83-1.552 4.16-3.97 8.068-7.314 11.414z" />
<glyph unicode="&#xe60b;" d="M512 768c-223.318 0-416.882-130.042-512-320 95.118-189.958 288.682-320 512-320 223.314 0 416.878 130.042 512 320-95.116 189.958-288.686 320-512 320zM764.45 598.296c60.162-38.374 111.142-89.774 149.434-150.296-38.292-60.522-89.274-111.922-149.436-150.298-75.594-48.216-162.89-73.702-252.448-73.702-89.56 0-176.856 25.486-252.45 73.704-60.16 38.372-111.14 89.772-149.434 150.296 38.292 60.524 89.274 111.924 149.434 150.296 3.918 2.5 7.876 4.922 11.858 7.3-9.958-27.328-15.408-56.822-15.408-87.596 0-141.384 114.616-256 256-256s256 114.616 256 256c0 30.774-5.45 60.268-15.408 87.598 3.98-2.378 7.938-4.802 11.858-7.302zM512 550c0-53.020-42.98-96-96-96s-96 42.98-96 96 42.98 96 96 96 96-42.98 96-96z" />
<glyph unicode="&#xe60c;" d="M839.322 663.584c77.644-55.030 141.37-129.092 184.678-215.584-95.122-189.958-288.686-320-512-320-62.566 0-122.792 10.212-179.178 29.084l77.956 77.956c33.058-7.3 66.972-11.040 101.222-11.040 89.558 0 176.854 25.486 252.446 73.704 60.162 38.376 111.144 89.776 149.436 150.298-37.052 58.566-86.014 108.55-143.65 146.494l69.090 69.088zM512 262c-22.724 0-44.752 2.976-65.728 8.534l313.186 313.184c5.562-20.972 8.542-42.994 8.542-65.718 0-141.384-114.616-256-256-256zM960 960h-53.738l-219.612-219.612c-55.076 17.924-113.754 27.612-174.65 27.612-223.318 0-416.882-130.042-512-320 42.658-85.192 105.128-158.308 181.194-213.068l-181.194-181.194v-53.738h53.738l906.262 906.262v53.738zM416 646c48.044 0 87.846-35.294 94.892-81.37l-109.524-109.524c-46.074 7.048-81.368 46.85-81.368 94.894 0 53.020 42.98 96 96 96zM110.116 448c38.292 60.524 89.274 111.924 149.434 150.296 3.918 2.5 7.876 4.922 11.858 7.3-9.958-27.328-15.408-56.822-15.408-87.596 0-58.524 19.65-112.448 52.698-155.562l-58.55-58.55c-56.072 37.642-103.754 86.772-140.032 144.112z" />
<glyph unicode="&#xe60d;" d="M153.6 567.040c-62.208 0-112.64-50.432-112.64-112.64s50.432-112.64 112.64-112.64 112.64 50.432 112.64 112.64c0 62.208-50.432 112.64-112.64 112.64zM512 567.040c-62.208 0-112.64-50.432-112.64-112.64s50.432-112.64 112.64-112.64 112.588 50.432 112.588 112.64c0 62.208-50.38 112.64-112.588 112.64zM870.4 567.040c-62.208 0-112.64-50.432-112.64-112.64s50.432-112.64 112.64-112.64 112.64 50.432 112.64 112.64c0 62.208-50.432 112.64-112.64 112.64z" />
<glyph unicode="&#xe60e;" d="M800 832h-576c-53.020 0-96-42.98-96-96v-32h768v32c0 53.020-42.98 96-96 96zM632.32 896l14.116-101h-268.872l14.114 101h240.642zM640 960h-256c-26.4 0-50.99-21.392-54.642-47.538l-18.714-133.924c-3.654-26.146 14.956-47.538 41.356-47.538h320c26.4 0 45.010 21.392 41.358 47.538l-18.714 133.924c-3.654 26.146-28.244 47.538-54.644 47.538v0zM816 640h-608c-35.2 0-61.392-28.682-58.206-63.738l52.412-576.526c3.186-35.054 34.594-63.736 69.794-63.736h480c35.2 0 66.608 28.682 69.794 63.736l52.41 576.526c3.188 35.056-23.004 63.738-58.204 63.738zM384 64h-96l-32 448h128v-448zM576 64h-128v448h128v-448zM736 64h-96v448h128l-32-448z" />
<glyph unicode="&#xe60f;" d="M512 890.88c-237.568 0-430.080-192.614-430.080-430.080 0-237.568 192.563-430.080 430.080-430.080 237.517 0 430.080 192.563 430.080 430.080 0 237.517-192.563 430.080-430.080 430.080zM770.56 513.126v-104.704h-517.12v104.704h517.12z" />
<glyph unicode="&#xe610;" d="M512 890.88c-237.568 0-430.080-192.614-430.080-430.080 0-237.568 192.563-430.080 430.080-430.080 237.517 0 430.080 192.563 430.080 430.080 0 237.517-192.563 430.080-430.080 430.080zM564.326 408.474v-206.182h-104.653v206.182h-206.234v104.653h206.182v206.234h104.704v-206.182h206.182v-104.704h-206.182z" />
<glyph unicode="&#xe611;" d="M640 813.412v-135.958c36.206-15.804 69.5-38.408 98.274-67.18 60.442-60.44 93.726-140.8 93.726-226.274s-33.286-165.834-93.726-226.274c-60.44-60.44-140.798-93.726-226.274-93.726s-165.834 33.286-226.274 93.726c-60.44 60.44-93.726 140.8-93.726 226.274s33.286 165.834 93.726 226.274c28.774 28.774 62.068 51.378 98.274 67.182v135.956c-185.048-55.080-320-226.472-320-429.412 0-247.424 200.578-448 448-448 247.424 0 448 200.576 448 448 0 202.94-134.95 374.332-320 429.412zM448 960h128v-512h-128z" />
<glyph unicode="&#xe612;" d="M575.87-64h-191.87v512h-128v176.45l128 0.058-0.208 103.952c0 143.952 39.034 231.54 208.598 231.54h141.176v-176.484h-88.23c-66.032 0-69.206-24.656-69.206-70.684l-0.262-88.324h158.69l-18.704-176.45-139.854-0.058-0.13-512z" />
<glyph unicode="&#xe615;" d="M864 960c88.364 0 160-71.634 160-160 0-36.020-11.91-69.258-32-96l-64-64-224 224 64 64c26.742 20.090 59.978 32 96 32zM64 224l-64-288 288 64 592 592-224 224-592-592zM715.578 596.422l-448-448-55.156 55.156 448 448 55.156-55.156z" />
<glyph unicode="&#xe616;" d="M259.891 816.64c0-54.426-40.192-98.509-106.291-98.509-62.208 0-102.4 44.083-102.4 98.509 0 55.706 41.523 98.509 105.011 98.509s102.4-42.803 103.68-98.509zM56.422 6.451v633.856h197.018v-633.856h-197.018zM371.354 438.118c0 79.053-2.611 145.152-5.222 202.189h171.11l9.114-88.166h3.891c25.907 41.523 89.446 102.4 195.738 102.4 129.587 0 226.816-86.835 226.816-273.51v-374.63h-197.018v351.283c0 81.664-28.57 137.421-99.84 137.421-54.426 0-86.784-37.581-101.069-73.882-5.222-12.954-6.502-31.078-6.502-49.254v-365.568h-197.018v431.718z" />
<glyph unicode="&#xe64e;" d="M842.010 370.52c-13.648 13.448-43.914 20.568-89.972 21.174-31.178 0.342-68.702-2.402-108.168-7.928-17.674 10.198-35.894 21.294-50.188 34.658-38.462 35.916-70.568 85.772-90.576 140.594 1.306 5.12 2.414 9.62 3.448 14.212 0 0 21.666 123.062 15.928 164.664-0.792 5.706-1.274 7.362-2.808 11.798l-1.88 4.834c-5.894 13.592-17.448 27.992-35.566 27.206l-10.916 0.346c-20.202 0-36.666-10.33-40.986-25.774-13.138-48.434 0.418-120.89 24.984-214.738l-6.288-15.288c-17.588-42.874-39.63-86.058-59.080-124.158l-2.528-4.952c-20.46-40.038-39.024-74.024-55.854-102.822l-17.376-9.188c-1.264-0.668-31.046-16.418-38.026-20.644-59.258-35.384-98.522-75.54-105.034-107.418-2.074-10.168-0.53-23.186 10.014-29.214l16.806-8.456c7.288-3.654 14.978-5.502 22.854-5.502 42.204 0 91.2 52.572 158.698 170.366 77.928 25.366 166.654 46.456 244.414 58.090 59.256-33.37 132.142-56.546 178.142-56.546 8.168 0 15.212 0.778 20.932 2.294 8.822 2.336 16.258 7.366 20.794 14.192 8.926 13.432 10.734 31.932 8.312 50.876-0.726 5.632-5.216 12.582-10.076 17.328zM211.646 145.952c7.696 21.042 38.16 62.644 83.206 99.558 2.832 2.294 9.808 8.832 16.194 14.904-47.102-75.126-78.646-105.068-99.4-114.46zM478.434 760.312c13.566 0 21.286-34.194 21.926-66.254 0.64-32.058-6.858-54.56-16.158-71.21-7.702 24.65-11.426 63.5-11.426 88.904 0 0.002-0.568 48.56 5.658 48.56zM398.854 322.504c9.45 16.918 19.282 34.756 29.33 53.678 24.49 46.316 39.96 82.556 51.478 112.346 22.91-41.684 51.444-77.12 84.984-105.514 4.184-3.544 8.616-7.102 13.274-10.65-68.21-13.496-127.164-29.908-179.068-49.86zM828.904 326.346c-4.154-2.6-16.054-4.1-23.706-4.1-24.706 0-55.27 11.294-98.126 29.666 16.47 1.218 31.562 1.838 45.1 1.838 24.782 0 32.12 0.106 56.35-6.072s24.538-18.734 20.384-21.332zM903.432 760.568l-142.864 142.862c-31.114 31.112-92.568 56.568-136.568 56.568h-480c-44 0-80-36-80-80v-864c0-44 36-80 80-80h736c44 0 80 36 80 80v608c0 44-25.456 105.458-56.568 136.568zM858.178 715.314c3.13-3.13 6.25-6.974 9.28-11.314h-163.458v163.456c4.342-3.032 8.182-6.152 11.314-9.28l142.864-142.862zM896 16c0-8.672-7.328-16-16-16h-736c-8.672 0-16 7.328-16 16v864c0 8.672 7.328 16 16 16h480c4.832 0 10.254-0.61 16-1.702v-254.298h254.294c1.096-5.746 1.702-11.166 1.702-16l0.002-608z" />
<glyph unicode="&#xe70e;" d="M981.188 799.894c-143.632 20.65-302.332 32.106-469.186 32.106-166.86 0-325.558-11.458-469.192-32.106-27.53-107.726-42.808-226.75-42.808-351.894 0-125.14 15.278-244.168 42.808-351.89 143.638-20.65 302.334-32.11 469.192-32.11 166.856 0 325.552 11.458 469.186 32.11 27.53 107.722 42.812 226.75 42.812 351.89 0 125.144-15.28 244.168-42.812 351.894zM384.002 256v384l320-192-320-192z" />
<glyph unicode="&#xe78e;" d="M512 960c-282.77 0-512-229.23-512-512s229.23-512 512-512 512 229.23 512 512-229.23 512-512 512zM832 256l-128-128-192 192-192-192-128 128 192 192-192 192 128 128 192-192 192 192 128-128-192-192 192-192z" />
<glyph unicode="&#xf005;" d="M950.856 590.286q0-12.572-14.856-27.43l-207.428-202.286 49.144-285.714q0.572-4 0.572-11.428 0-12-6-20.286t-17.428-8.286q-10.856 0-22.856 6.856l-256.572 134.856-256.572-134.856q-12.57-6.856-22.856-6.856-12 0-18 8.286t-6 20.286q0 3.428 1.144 11.428l49.144 285.714-208 202.286q-14.286 15.428-14.286 27.428 0 21.144 32 26.286l286.856 41.714 128.572 260q10.856 23.43 28 23.43t28-23.43l128.572-260 286.858-41.714q32-5.144 32-26.286z" horiz-adv-x="952" />
<glyph unicode="&#xf017;" d="M512 649.144v-256q0-8-5.142-13.144t-13.142-5.144h-182.856q-8 0-13.144 5.144t-5.142 13.144v36.572q0 8 5.142 13.144t13.144 5.142h128v201.142q0 8 5.142 13.144t13.142 5.144h36.572q8 0 13.144-5.144t5.144-13.144zM749.714 448q0 84.572-41.714 156t-113.144 113.144-156 41.714-156-41.714-113.144-113.144-41.714-156 41.714-156 113.144-113.144 156-41.714 156 41.714 113.144 113.144 41.714 156zM877.714 448q0-119.428-58.856-220.286t-159.714-159.714-220.286-58.856-220.286 58.856-159.714 159.714-58.856 220.286 58.856 220.286 159.714 159.714 220.286 58.856 220.286-58.856 159.714-159.714 58.856-220.286z" horiz-adv-x="878" />
<glyph unicode="&#xf019;" d="M765.144 498.858q9.714-23.428-8-40l-256-256q-10.286-10.856-25.714-10.856t-25.714 10.856l-256 256q-17.714 16.572-8 40 9.714 22.286 33.714 22.286h146.286v256q0 14.856 10.856 25.714t25.714 10.856h146.286q14.856 0 25.714-10.856t10.856-25.714v-256h146.286q24 0 33.714-22.286zM932.572 374.856q8 0 13.144-5.144t5.144-13.144v-329.144q0-8-5.144-13.144t-13.144-5.144h-914.286q-8 0-13.144 5.144t-5.142 13.144v329.144q0 8 5.142 13.144t13.144 5.144h109.714q8 0 13.144-5.144t5.144-13.144v-201.144h658.286v201.144q0 8 5.144 13.144t13.144 5.144h109.714z" horiz-adv-x="952" />
<glyph unicode="&#xf045;" d="M804.572 394.856v-148q0-68-48.286-116.286t-116.286-48.286h-475.428q-68 0-116.286 48.286t-48.286 116.286v475.428q0 68 48.286 116.286t116.286 48.286h145.714q7.428 0 12.858-5.428t5.428-12.858q0-15.428-14.856-18.286-44-14.856-76-34.286-5.714-2.286-9.144-2.286h-64q-37.714 0-64.57-26.856t-26.856-64.572v-475.428q0-37.714 26.856-64.572t64.57-26.856h475.428q37.714 0 64.572 26.856t26.856 64.572v122.286q0 10.856 10.286 16.572 16 7.428 30.856 21.144 9.144 9.144 20 4.572 12-5.144 12-16.572zM940 678.286l-219.428-219.43q-10.286-10.856-25.714-10.856-6.856 0-14.286 2.858-22.286 9.714-22.286 33.714v109.714h-91.428q-184.572 0-250.286-74.858-68-78.286-42.286-270.286 1.714-13.144-11.428-19.428-4.572-1.144-6.856-1.144-9.144 0-14.856 7.428-5.714 8-12 17.714t-22.57 39.144-28.286 56.856-22 65.144-10 69.714q0 28 2 52t8 51.43 16 50.286 26.856 46.57 39.144 42.286 54 35.142 71.144 27.714 91.144 17.428 112.286 6.286h91.428v109.714q0 24 22.286 33.714 7.428 2.856 14.286 2.856 14.856 0 25.714-10.856l219.428-219.43q10.856-10.856 10.856-25.714t-10.856-25.714z" horiz-adv-x="952" />
<glyph unicode="&#xf06e;" d="M950.856 411.428q-86.856 134.856-217.714 201.714 34.856-59.43 34.856-128.572 0-105.714-75.144-180.856t-180.856-75.144-180.856 75.144-75.144 180.856q0 69.144 34.856 128.572-130.856-66.856-217.714-201.714 76-117.144 190.57-186.572t248.286-69.428 248.286 69.428 190.572 186.572zM539.428 630.856q0 11.43-8 19.43t-19.428 8q-71.428 0-122.572-51.144t-51.144-122.572q0-11.428 8-19.428t19.428-8 19.428 8 8 19.428q0 49.144 34.856 84t84 34.856q11.428 0 19.428 8t8 19.428zM1024 411.428q0-19.428-11.428-39.428-80-131.428-215.144-210.572t-285.428-79.144-285.428 79.428-215.144 210.286q-11.43 20-11.43 39.428t11.43 39.428q80 130.856 215.144 210.286t285.428 79.428 285.428-79.428 215.144-210.286q11.428-20 11.428-39.428z" />
<glyph unicode="&#xf0c0;" d="M338.858 448q-92.57-2.856-151.43-73.144h-76.57q-46.856 0-78.856 23.144t-32 67.714q0 201.714 70.856 201.714 3.43 0 24.856-12t55.714-24.286 68-12.286q38.286 0 76 13.144-2.858-21.144-2.858-37.714 0-79.43 46.286-146.286zM950.856 84q0-68.572-41.714-108.286t-110.856-39.714h-499.428q-69.144 0-110.856 39.714t-41.714 108.286q0 30.286 2 59.144t8 62.286 15.144 62 24.57 55.714 35.43 46.286 48.856 30.572 63.714 11.428q5.714 0 24.572-12.286t41.714-27.428 61.144-27.428 77.144-12.286 77.144 12.286 61.144 27.428 41.714 27.428 24.572 12.286q34.856 0 63.714-11.428t48.856-30.572 35.428-46.286 24.572-55.714 15.144-62 8-62.286 2-59.144zM365.714 813.714q0-60.57-42.858-103.428t-103.43-42.856-103.43 42.856-42.856 103.428 42.856 103.43 103.43 42.856 103.43-42.856 42.856-103.43zM768 594.286q0-90.858-64.286-155.144t-155.144-64.286-155.144 64.286-64.286 155.144 64.286 155.144 155.144 64.286 155.144-64.286 64.286-155.144zM1097.144 465.714q0-44.57-32-67.714t-78.856-23.144h-76.572q-58.856 70.286-151.428 73.144 46.286 66.856 46.286 146.286 0 16.57-2.856 37.714 37.714-13.144 76-13.144 33.714 0 68 12.286t55.714 24.286 24.856 12q70.856 0 70.856-201.714zM1024 813.714q0-60.57-42.856-103.428t-103.428-42.856-103.428 42.856-42.856 103.428 42.856 103.43 103.428 42.856 103.428-42.856 42.856-103.43z" horiz-adv-x="1098" />
<glyph unicode="&#xf112;" d="M1024 320q0-94.856-72.572-257.714-1.714-4-6-13.714t-7.714-17.144-7.428-12.572q-6.856-9.714-16-9.714-8.572 0-13.428 5.714t-4.856 14.286q0 5.144 1.428 15.144t1.428 13.428q2.856 38.856 2.856 70.286 0 57.714-10 103.428t-27.714 79.144-45.714 57.714-60.286 39.714-76 24.286-88 12.286-100.286 3.428h-128v-146.286q0-14.856-10.858-25.714t-25.714-10.856-25.714 10.856l-292.572 292.572q-10.856 10.856-10.856 25.714t10.856 25.714l292.572 292.572q10.856 10.856 25.714 10.856t25.714-10.856 10.856-25.714v-146.286h128q407.428 0 500-230.286 30.286-76.57 30.286-190.286z" />
<glyph unicode="&#xf119;" d="M648 257.714q4.572-14.286-2.286-27.714t-21.144-18-28 2.286-18.286 21.714q-14.286 45.714-52.856 74t-86.572 28.286-86.572-28.286-52.856-74q-4.572-14.856-18-21.714t-27.714-2.286q-14.856 4.572-21.714 18t-2.286 27.714q21.144 69.144 78.858 111.428t130.286 42.286 130.286-42.286 78.856-111.428zM365.714 594.286q0-30.286-21.428-51.714t-51.714-21.428-51.714 21.428-21.43 51.714 21.43 51.714 51.714 21.428 51.714-21.428 21.428-51.714zM658.286 594.286q0-30.286-21.428-51.714t-51.714-21.428-51.714 21.428-21.428 51.714 21.428 51.714 51.714 21.428 51.714-21.428 21.428-51.714zM804.572 448q0 74.286-29.144 142t-78 116.572-116.572 78-142 29.142-142-29.142-116.57-78-78-116.572-29.144-142 29.144-142 78-116.572 116.57-78 142-29.144 142 29.144 116.572 78 78 116.572 29.144 142zM877.714 448q0-119.428-58.856-220.286t-159.714-159.714-220.286-58.856-220.286 58.856-159.714 159.714-58.856 220.286 58.856 220.286 159.714 159.714 220.286 58.856 220.286-58.856 159.714-159.714 58.856-220.286z" horiz-adv-x="878" />
</font>
</defs>
</svg>
